<svg width="18" height="18" viewBox="0 0 18 18" fill="none" xmlns="http://www.w3.org/2000/svg">
<path d="M6.00072 8.99496C6.00072 7.3391 7.3435 5.9964 9.00036 5.9964C10.6572 5.9964 12.0007 7.3391 12.0007 8.99496C12.0007 10.6508 10.6572 11.9935 9.00036 11.9935C7.3435 11.9935 6.00072 10.6508 6.00072 8.99496ZM4.37878 8.99496C4.37878 11.5459 6.44786 13.6138 9.00036 13.6138C11.5529 13.6138 13.6219 11.5459 13.6219 8.99496C13.6219 6.44399 11.5529 4.37616 9.00036 4.37616C6.44786 4.37616 4.37878 6.44399 4.37878 8.99496ZM12.7249 4.19302C12.7248 4.4065 12.788 4.61522 12.9066 4.79277C13.0252 4.97033 13.1939 5.10874 13.3912 5.19052C13.5885 5.27229 13.8057 5.29376 14.0152 5.25219C14.2247 5.21063 14.4172 5.1079 14.5683 4.957C14.7194 4.80611 14.8223 4.61382 14.8641 4.40445C14.9059 4.19509 14.8846 3.97805 14.8029 3.78078C14.7212 3.58352 14.5829 3.41488 14.4053 3.29621C14.2277 3.17753 14.0189 3.11414 13.8053 3.11406H13.8049C13.5186 3.11419 13.244 3.22789 13.0415 3.4302C12.839 3.6325 12.7251 3.90686 12.7249 4.19302ZM5.36421 16.3166C4.48672 16.2767 4.00977 16.1306 3.69281 16.0072C3.2726 15.8437 2.97278 15.649 2.65755 15.3344C2.34233 15.0198 2.1472 14.7204 1.98433 14.3005C1.86077 13.9839 1.7146 13.5071 1.67472 12.6301C1.63108 11.6819 1.62237 11.3971 1.62237 8.99503C1.62237 6.59295 1.6318 6.30892 1.67472 5.35999C1.71468 4.48302 1.86192 4.00715 1.98433 3.68959C2.14792 3.26963 2.34276 2.96999 2.65755 2.65495C2.97235 2.33991 3.27188 2.1449 3.69281 1.98213C4.00962 1.85865 4.48672 1.71257 5.36421 1.6727C6.31292 1.6291 6.59791 1.62039 9.00036 1.62039C11.4028 1.62039 11.6881 1.62982 12.6376 1.6727C13.5151 1.71264 13.9912 1.8598 14.309 1.98213C14.7292 2.1449 15.029 2.34035 15.3442 2.65495C15.6595 2.96956 15.8539 3.26963 16.0175 3.68959C16.141 4.00621 16.2872 4.48302 16.3271 5.35999C16.3707 6.30892 16.3794 6.59295 16.3794 8.99503C16.3794 11.3971 16.3707 11.6811 16.3271 12.6301C16.2871 13.5071 16.1402 13.9837 16.0175 14.3005C15.8539 14.7204 15.659 15.0201 15.3442 15.3344C15.0294 15.6487 14.7292 15.8437 14.309 16.0072C13.9922 16.1307 13.5151 16.2768 12.6376 16.3166C11.6889 16.3603 11.4039 16.369 9.00036 16.369C6.59683 16.369 6.31264 16.3603 5.36421 16.3166ZM5.28969 0.0544735C4.33155 0.0980811 3.67683 0.249916 3.10505 0.472272C2.5129 0.701895 2.01162 1.00995 1.51069 1.50979C1.00977 2.00962 0.702316 2.51139 0.472555 3.10319C0.250066 3.67498 0.0981399 4.32895 0.0545062 5.28652C0.0101524 6.2456 0 6.55222 0 8.99496C0 11.4377 0.0101524 11.7443 0.0545062 12.7034C0.0981399 13.661 0.250066 14.3149 0.472555 14.8867C0.702316 15.4782 1.00984 15.9805 1.51069 16.4801C2.01154 16.9798 2.5129 17.2874 3.10505 17.5177C3.67791 17.74 4.33155 17.8918 5.28969 17.9355C6.24985 17.9791 6.55615 17.9899 9.00036 17.9899C11.4446 17.9899 11.7514 17.9798 12.711 17.9355C13.6692 17.8918 14.3235 17.74 14.8957 17.5177C15.4875 17.2874 15.9891 16.98 16.49 16.4801C16.991 15.9803 17.2978 15.4782 17.5282 14.8867C17.7507 14.3149 17.9033 13.661 17.9462 12.7034C17.9898 11.7436 18 11.4377 18 8.99496C18 6.55222 17.9898 6.2456 17.9462 5.28652C17.9026 4.32888 17.7507 3.67462 17.5282 3.10319C17.2978 2.51175 16.9902 2.01041 16.49 1.50979C15.9899 1.00916 15.4875 0.701895 14.8964 0.472272C14.3235 0.249916 13.6692 0.0973615 12.7117 0.0544735C11.7521 0.0108659 11.4453 0 9.00108 0C6.55687 0 6.24985 0.0101463 5.28969 0.0544735Z" fill="black"/>
</svg>
