<svg width="20" height="10" viewBox="0 0 20 10" fill="none" xmlns="http://www.w3.org/2000/svg">
<path d="M11.2853 5C11.2853 7.75938 8.76489 10 5.64263 10C2.52038 10 0 7.75938 0 5C0 2.24062 2.52038 0 5.64263 0C8.76489 0 11.2853 2.24062 11.2853 5ZM17.4671 5C17.4671 7.59382 16.2006 9.70199 14.6458 9.70199C13.0909 9.70199 11.8245 7.59382 11.8245 5C11.8245 2.40618 13.0909 0.298011 14.6458 0.298011C16.2006 0.298011 17.4671 2.39514 17.4671 5ZM20 5C20 7.32892 19.5611 9.21634 19.0094 9.21634C18.4577 9.21634 18.0188 7.32892 18.0188 5C18.0188 2.67108 18.4577 0.783662 19.0094 0.783662C19.5611 0.783662 20 2.67108 20 5Z" fill="black"/>
</svg>
