<svg width="24" height="24" viewBox="0 0 24 24" fill="none" xmlns="http://www.w3.org/2000/svg">
<g clip-path="url(#clip0_829_607)">
<path d="M8.66262 20C15.4534 20 19.1687 14.2285 19.1687 9.22492C19.1687 9.06266 19.1652 8.8968 19.1582 8.73455C19.8809 8.19849 20.5046 7.53451 21 6.7738C20.3269 7.08095 19.6122 7.28154 18.8804 7.36873C19.651 6.89504 20.2279 6.15088 20.5043 5.27422C19.7794 5.71481 18.9867 6.02561 18.1601 6.1933C17.6031 5.58636 16.8667 5.18449 16.0648 5.04983C15.2628 4.91517 14.4399 5.05522 13.7233 5.44831C13.0067 5.84141 12.4363 6.46567 12.1004 7.22457C11.7644 7.98347 11.6816 8.83474 11.8646 9.64678C10.3969 9.57123 8.96095 9.18018 7.64999 8.49897C6.33902 7.81776 5.18227 6.8616 4.25473 5.69247C3.7833 6.52608 3.63904 7.51251 3.85127 8.45128C4.0635 9.39005 4.6163 10.2107 5.3973 10.7465C4.81097 10.7274 4.23748 10.5655 3.72422 10.2742V10.321C3.72369 11.1958 4.01857 12.0438 4.55873 12.7209C5.09889 13.3979 5.85099 13.8622 6.68719 14.0348C6.14404 14.1872 5.57399 14.2095 5.02113 14.0997C5.25709 14.8521 5.71618 15.5101 6.33433 15.982C6.95248 16.4538 7.69884 16.716 8.46926 16.7319C7.16132 17.7856 5.54563 18.3571 3.88242 18.3544C3.58747 18.3539 3.2928 18.3354 3 18.2989C4.68964 19.4106 6.65515 20.0011 8.66262 20Z" fill="black"/>
</g>
<defs>
<clipPath id="clip0_829_607">
<rect width="24" height="24" fill="white"/>
</clipPath>
</defs>
</svg>
