<svg width="22" height="22" viewBox="0 0 22 22" fill="none" xmlns="http://www.w3.org/2000/svg">
<g clip-path="url(#clip0_942_1552)">
<path d="M19.25 16.5V17.4167C19.25 18.425 18.425 19.25 17.4167 19.25H4.58333C3.56583 19.25 2.75 18.425 2.75 17.4167V4.58333C2.75 3.575 3.56583 2.75 4.58333 2.75H17.4167C18.425 2.75 19.25 3.575 19.25 4.58333V5.5H11C9.9825 5.5 9.16667 6.325 9.16667 7.33333V14.6667C9.16667 15.675 9.9825 16.5 11 16.5H19.25ZM11 14.6667H20.1667V7.33333H11V14.6667ZM14.6667 12.375C13.9058 12.375 13.2917 11.7608 13.2917 11C13.2917 10.2392 13.9058 9.625 14.6667 9.625C15.4275 9.625 16.0417 10.2392 16.0417 11C16.0417 11.7608 15.4275 12.375 14.6667 12.375Z" fill="black"/>
</g>
<defs>
<clipPath id="clip0_942_1552">
<rect width="22" height="22" fill="white"/>
</clipPath>
</defs>
</svg>
