<svg width="20" height="14" viewBox="0 0 20 14" fill="none" xmlns="http://www.w3.org/2000/svg">
<path d="M19.8008 3.21707C19.8008 3.21707 19.6055 1.91002 19.0039 1.33611C18.2422 0.580762 17.3906 0.577059 17 0.532627C14.2031 0.340088 10.0039 0.340088 10.0039 0.340088H9.99609C9.99609 0.340088 5.79688 0.340088 3 0.532627C2.60938 0.577059 1.75781 0.580762 0.996094 1.33611C0.394531 1.91002 0.203125 3.21707 0.203125 3.21707C0.203125 3.21707 0 4.75368 0 6.28658V7.72322C0 9.25613 0.199219 10.7927 0.199219 10.7927C0.199219 10.7927 0.394531 12.0998 0.992187 12.6737C1.75391 13.429 2.75391 13.4031 3.19922 13.4846C4.80078 13.629 10 13.6734 10 13.6734C10 13.6734 14.2031 13.666 17 13.4772C17.3906 13.4327 18.2422 13.429 19.0039 12.6737C19.6055 12.0998 19.8008 10.7927 19.8008 10.7927C19.8008 10.7927 20 9.25983 20 7.72322V6.28658C20 4.75368 19.8008 3.21707 19.8008 3.21707ZM7.93359 9.46718V4.13903L13.3359 6.81236L7.93359 9.46718Z" fill="black"/>
</svg>
